<svg width="48" height="48" viewBox="0 0 24 24" version="1.1" xmlns="http://www.w3.org/2000/svg" xmlns:xlink="http://www.w3.org/1999/xlink"><symbol id="b"><path d="M9.656 11.892H7.55c-.022 0-.032.009-.043.027a9.082 9.082 0 01-.494 2.394c0 .01 0 .018.01.028.011.009.022.009.033.009h.72c.021 0 .032-.01.032-.018a8.247 8.247 0 00.43-1.865h.687v1.855c0 .019.022.037.043.037h.688c.022 0 .043-.018.043-.037V11.92c0-.018-.021-.027-.043-.027zm8.908 0h-.687c-.022 0-.043.018-.043.036v1.855a1.93 1.93 0 01-.473.055c-.451 0-.559-.119-.559-.63v-1.28c0-.018-.021-.036-.043-.036h-.677c-.021 0-.043.018-.043.036v1.343c0 .841.333 1.161 1.182 1.161.484 0 1.032-.11 1.354-.21.01-.01.022-.018.022-.028v-2.266c.01-.027-.011-.036-.033-.036zm-14.571 0h-.699c-.021 0-.032.009-.032.027a12.9 12.9 0 01-.634 1.636l-.698-1.636c-.011-.01-.022-.018-.032-.018h-.71c-.01 0-.021.009-.032.018-.01.01-.01.018 0 .027l1.053 2.45a7.621 7.621 0 01-.3.493c-.076.11-.14.22-.205.329-.01.009-.01.018 0 .027.01.01.022.019.032.019H2.5c.011 0 .033-.01.033-.019.128-.21.29-.502.44-.804.451-.895.806-1.736 1.075-2.504 0-.009 0-.018-.011-.027-.022-.018-.032-.018-.043-.018zm2.504 1.891c0-.009-.011-.018-.022-.018h-.032a2.768 2.768 0 01-.698.091c-.484 0-.71-.11-.71-.73 0-.503.076-.732.71-.732.182 0 .343.018.558.073.022 0 .033 0 .043-.018.076-.128.172-.283.28-.475v-.027c0-.01-.011-.019-.022-.019a3.771 3.771 0 00-.913-.119c-1 0-1.45.402-1.45 1.307 0 .914.45 1.325 1.45 1.325.247 0 .752-.046.988-.128.022-.009.033-.027.022-.046l-.204-.484zm6.544-1.891h-.699c-.021 0-.032.009-.032.027-.107.375-.333.987-.634 1.636l-.698-1.636c-.011-.01-.022-.018-.032-.018h-.71c-.01 0-.021.009-.032.018-.01.01-.01.018 0 .027l1.053 2.45a7.648 7.648 0 01-.3.493c-.076.11-.14.22-.205.338-.01.01-.01.018 0 .027.01.01.022.019.032.019h.763c.011 0 .033-.01.033-.019.129-.21.29-.502.44-.804.44-.895.806-1.736 1.075-2.503 0-.01 0-.019-.011-.028-.021-.027-.032-.027-.043-.027zm2.579 0h-2.031c-.021 0-.043.018-.043.036v2.403c0 .019.022.037.043.037h.688c.021 0 .043-.018.043-.037v-1.854h1.064c.01 0 .032-.01.032-.019.086-.164.161-.338.247-.511v-.028c-.021-.027-.032-.027-.043-.027z" fill="#EF4058"/><path fill-rule="evenodd" clip-rule="evenodd" d="M7.356 11.871l.019-.033a.196.196 0 01.176-.104h2.106c.03 0 .068.006.106.027.04.023.093.074.093.158v2.403a.201.201 0 01-.198.194H8.97a.201.201 0 01-.13-.047.193.193 0 01-.069-.146v-1.698h-.394a8.413 8.413 0 01-.418 1.75.176.176 0 01-.075.103.198.198 0 01-.107.03h-.722a.195.195 0 01-.13-.046.185.185 0 01-.067-.144.2.2 0 01-.118.14l-.009.005c-.135.047-.335.08-.523.102a4.872 4.872 0 01-.516.034c-.516 0-.925-.105-1.204-.36-.283-.259-.402-.641-.402-1.123 0-.477.12-.856.403-1.11.28-.251.688-.354 1.203-.354.311 0 .653.046.942.121a.18.18 0 01.086.04.175.175 0 01.062.134v.069l-.02.036a13.93 13.93 0 01-.207.355l-.074.123a.188.188 0 01-.176.095h-.02l-.018-.005a1.958 1.958 0 00-.521-.068c-.31 0-.423.059-.473.12-.057.07-.081.195-.081.454 0 .3.057.422.121.48.069.062.19.093.433.093.205 0 .5-.036.652-.084l.022-.008h.057a.177.177 0 01.17.128l.196.465c.011.024.018.05.019.076l.006-.017a8.922 8.922 0 00.485-2.35l.003-.038zm-.654 2.397l-.204-.485c0-.009-.01-.018-.021-.018h-.033c-.02.006-.041.013-.065.018h-.036v.009a3.05 3.05 0 01-.597.065c-.484 0-.71-.11-.71-.731 0-.503.076-.732.71-.732.182 0 .344.019.559.073.021 0 .032 0 .043-.018l.075-.127c.044-.072.092-.152.143-.241l.001-.002.038-.067.022-.038v-.027c0-.01-.01-.019-.022-.019a3.257 3.257 0 00-.1-.024l-.016-.004a3.78 3.78 0 00-.797-.09c-1 0-1.45.402-1.45 1.306 0 .914.45 1.325 1.45 1.325.213 0 .616-.034.875-.095l.01-.003c.038-.01.073-.019.104-.03.021-.009.032-.027.021-.045zm1.107.064a8.244 8.244 0 00.43-1.865h.688v1.855c0 .019.021.037.043.037h.687c.022 0 .043-.018.043-.037V11.92c0-.018-.021-.027-.043-.027H7.551c-.021 0-.032.009-.043.027a9.144 9.144 0 01-.452 2.273l-.042.121c0 .01 0 .019.01.028.011.009.022.009.033.009h.72c.021 0 .032-.01.032-.018zm10.767-.11c-.322.1-.87.21-1.354.21-.849 0-1.182-.32-1.182-1.16v-1.344c0-.018.022-.036.043-.036h.677c.022 0 .043.018.043.036v1.28c0 .511.108.63.56.63.171 0 .322-.018.472-.055v-1.855c0-.018.021-.036.043-.036h.688c.021 0 .043.009.032.036v2.267c0 .009-.01.018-.022.027zm.177-2.274a.177.177 0 00-.06-.169.197.197 0 00-.127-.045h-.688a.2.2 0 00-.198.194v1.727c-.1.017-.204.026-.318.026-.226 0-.3-.034-.333-.072a.251.251 0 01-.05-.12 1.454 1.454 0 01-.02-.281v-1.28a.201.201 0 00-.198-.194h-.678a.2.2 0 00-.13.049.193.193 0 00-.068.145v1.344c0 .435.085.78.32 1.009.234.228.58.309 1.017.309a5.19 5.19 0 001.4-.217l.03-.01.024-.02a.303.303 0 00.031-.03.18.18 0 00.046-.118v-2.247zm-17.596-.001c-.01-.01-.01-.019 0-.028.011-.009.022-.018.033-.018h.709c.01 0 .021.01.032.018l.698 1.636.088-.192c.257-.578.45-1.114.546-1.444 0-.018.011-.027.033-.027h.698c.01 0 .022 0 .043.018.01.01.01.018.01.028a21.045 21.045 0 01-1.074 2.503c-.15.302-.311.594-.44.804 0 .01-.022.019-.032.019h-.763c-.011 0-.022-.01-.033-.019-.01-.009-.01-.018 0-.027l.033-.055.031-.053.003-.004c.043-.072.088-.145.137-.217a7.59 7.59 0 00.301-.493l-1.053-2.45zm.88 2.439l-1.014-2.357a.17.17 0 01-.03-.096c0-.072.043-.117.064-.134a.305.305 0 01.034-.026.18.18 0 01.099-.03h.709c.048 0 .083.02.099.03a.29.29 0 01.032.025l.029.024.574 1.344c.222-.513.39-.981.478-1.279a.18.18 0 01.185-.153h.698a.22.22 0 01.067.01.243.243 0 01.076.045.186.186 0 01.059.09c.008.028.007.055.007.058v.028l-.009.025a21.203 21.203 0 01-1.082 2.523c-.15.299-.31.59-.44.803a.174.174 0 01-.081.083.202.202 0 01-.09.022h-.763a.185.185 0 01-.1-.03.29.29 0 01-.032-.024.179.179 0 01-.064-.135c0-.048.019-.084.038-.108.061-.105.126-.214.201-.324a7.4 7.4 0 00.256-.414zm8.91-2.485c.01 0 .021.01.032.018l.699 1.636a13.693 13.693 0 00.633-1.636c0-.018.011-.027.033-.027h.698c.011 0 .022 0 .043.027.011.01.011.019.011.028a22.974 22.974 0 01-1.075 2.503c-.15.302-.311.594-.44.805 0 .009-.022.018-.032.018h-.763c-.011 0-.022-.01-.033-.018-.01-.01-.01-.019 0-.028a5.3 5.3 0 01.033-.058l.028-.05.002-.004c.044-.077.09-.152.141-.226.097-.146.194-.301.301-.493l-1.053-2.45c-.01-.008-.01-.018 0-.027.011-.009.022-.018.033-.018h.709zm.138 2.485l-1.014-2.357a.17.17 0 01-.03-.096c0-.072.043-.117.064-.134a.3.3 0 01.034-.026.18.18 0 01.099-.03h.709c.048 0 .083.02.099.03.015.01.027.02.032.025l.03.024.573 1.345c.223-.512.39-.975.478-1.279a.18.18 0 01.185-.154h.698a.2.2 0 01.088.02c.03.016.053.038.07.058a.183.183 0 01.051.134v.028l-.008.025a23.13 23.13 0 01-1.082 2.522c-.15.299-.31.59-.44.804a.176.176 0 01-.082.083.203.203 0 01-.09.023h-.763a.184.184 0 01-.1-.03l-.032-.025a.179.179 0 01-.064-.135.17.17 0 01.035-.105c.064-.116.129-.225.204-.336a7.41 7.41 0 00.256-.414zm4.53-2.336a7.704 7.704 0 01-.197.409c0 .008-.022.018-.033.018H14.32v1.855c0 .018-.021.036-.043.036h-.688c-.021 0-.043-.018-.043-.036v-2.404c0-.018.022-.036.043-.036h2.031c.011 0 .022 0 .043.027v.028l-.043.088-.007.014zm.006 0c.002 0 .002 0 0 0zm-1.145.584v1.698c0 .07-.039.12-.069.146a.201.201 0 01-.129.048h-.688a.2.2 0 01-.198-.194v-2.404a.2.2 0 01.198-.194h2.031a.2.2 0 01.088.02c.035.019.06.046.077.067l.034.043v.12l-.017.034a11.66 11.66 0 00-.099.206c-.047.1-.095.203-.143.296a.174.174 0 01-.086.092.202.202 0 01-.09.022h-.909z" fill="#EF4058"/><path d="M4.81 8.2c-.989 0-1.376.366-1.376 1.289 0 .94.387 1.306 1.376 1.306.999 0 1.386-.365 1.386-1.306 0-.933-.387-1.289-1.386-1.289zm0 2.056c-.452 0-.591-.1-.591-.758 0-.695.15-.759.59-.759.452 0 .602.064.602.759 0 .658-.14.758-.601.758zm4.137-.1c0-.01-.011-.019-.022-.019h-.032a2.768 2.768 0 01-.698.092c-.484 0-.71-.11-.71-.731 0-.503.076-.731.71-.731.182 0 .343.018.558.073.022 0 .033 0 .043-.019.076-.127.172-.283.28-.475V8.32c0-.01-.011-.018-.022-.018a3.77 3.77 0 00-.913-.12c-1 0-1.45.403-1.45 1.308 0 .913.45 1.324 1.45 1.324.247 0 .752-.045.988-.127.022-.01.033-.028.022-.046l-.204-.484zM3.219 8.264H1.19c-.022 0-.044.018-.044.037v2.403c0 .018.022.036.043.036h.688c.021 0 .043-.018.043-.036V8.84h1.053c.01 0 .032-.01.032-.019.086-.164.161-.338.247-.511v-.028c-.01-.009-.021-.018-.032-.018z" fill="#1466AC"/><path fill-rule="evenodd" clip-rule="evenodd" d="M8.793 10.164a3.05 3.05 0 01-.597.064c-.484 0-.71-.11-.71-.73 0-.503.076-.732.71-.732.182 0 .344.019.559.073.021 0 .032 0 .043-.018l.075-.127c.044-.073.092-.153.143-.241l.001-.002a9.311 9.311 0 00.06-.105v-.027c0-.01-.01-.019-.022-.019a3.279 3.279 0 00-.116-.028 3.777 3.777 0 00-.797-.09c-1 0-1.45.402-1.45 1.306 0 .914.45 1.325 1.45 1.325.213 0 .616-.034.875-.095l.01-.003c.038-.01.073-.02.104-.03.021-.009.032-.027.021-.045l-.204-.485c0-.009-.01-.018-.021-.018h-.033a1.015 1.015 0 01-.101.027zm.304-.057l.196.465a.185.185 0 01-.001.166.2.2 0 01-.101.093l-.01.004c-.135.047-.335.08-.523.102a4.872 4.872 0 01-.516.034c-.516 0-.925-.105-1.204-.36-.283-.259-.402-.641-.402-1.123 0-.477.12-.856.403-1.11.28-.251.688-.354 1.203-.354.311 0 .653.046.942.121a.18.18 0 01.148.174v.069l-.02.036a13.276 13.276 0 01-.28.478.187.187 0 01-.177.095h-.02l-.018-.005a1.96 1.96 0 00-.521-.068c-.31 0-.423.058-.473.12-.057.07-.081.195-.081.453 0 .301.057.423.121.48.069.063.19.094.433.094.205 0 .5-.036.652-.084l.022-.008h.057a.178.178 0 01.17.128zM3.198 8.42l-.049.105c-.047.1-.093.2-.143.295 0 .01-.022.018-.033.018H1.92v1.865c0 .018-.021.036-.043.036H1.19c-.021 0-.043-.018-.043-.036V8.3c0-.018.022-.036.043-.036h2.03c.011 0 .022.009.033.018v.027a6.902 6.902 0 00-.054.11v.002zm-1.122.576v1.707a.2.2 0 01-.198.194h-.689a.2.2 0 01-.129-.048.193.193 0 01-.069-.146V8.3c0-.07.04-.12.069-.146a.201.201 0 01.13-.048h2.03a.19.19 0 01.1.03l.032.024.056.048v.139l-.016.033c-.033.065-.066.136-.1.207-.046.1-.095.203-.143.296a.173.173 0 01-.086.092.203.203 0 01-.09.022h-.897zm1.57-.615c.265-.248.658-.34 1.165-.34.51 0 .907.09 1.173.336.269.25.369.627.369 1.11 0 .488-.1.869-.368 1.122-.266.25-.663.343-1.174.343-.507 0-.9-.093-1.165-.343-.267-.253-.366-.634-.366-1.122 0-.479.1-.855.367-1.106zm.818 1.638c.04.048.117.078.347.078.236 0 .316-.03.357-.079a.336.336 0 00.063-.157c.017-.087.026-.204.026-.365 0-.17-.01-.291-.027-.38a.315.315 0 00-.063-.152.192.192 0 00-.104-.051 1.254 1.254 0 00-.252-.017c-.11 0-.187.004-.245.017-.055.012-.083.03-.101.05a.32.32 0 00-.063.154c-.017.088-.027.21-.027.38 0 .16.009.277.026.364.017.087.04.132.063.158zm-1.029-.532c0-.923.387-1.288 1.376-1.288 1 0 1.386.356 1.386 1.288 0 .941-.387 1.307-1.386 1.307-.989 0-1.376-.366-1.376-1.307zm.785.01c0 .657.14.758.59.758.463 0 .603-.1.603-.759 0-.694-.15-.758-.602-.758-.44 0-.591.064-.591.758z" fill="#1466AC"/><path fill-rule="evenodd" clip-rule="evenodd" d="M13.575 2.627l5.443 3.137a3.578 3.578 0 011.794 3.1v6.272c0 1.28-.684 2.46-1.794 3.1l-5.443 3.137c-1.11.64-2.477.64-3.586 0l-5.444-3.137a3.582 3.582 0 01-.784-.61.542.542 0 00-.386-.172H1.86c-.362 0-.6.372-.411.68a5.73 5.73 0 002.02 1.962l5.444 3.137a5.748 5.748 0 005.738 0l5.443-3.137a5.725 5.725 0 002.87-4.96V8.864a5.725 5.725 0 00-2.87-4.96L14.651.767a5.748 5.748 0 00-5.738 0L3.469 3.904a5.73 5.73 0 00-1.611 1.381c-.241.3-.007.715.378.715H4.02a.54.54 0 00.302-.097c.072-.049.147-.095.223-.14L9.99 2.628a3.593 3.593 0 013.586 0z" fill="url(#a)"/><defs><linearGradient id="a" x1="11.932" y1="-.886" x2="11.932" y2="24.886" gradientUnits="userSpaceOnUse"><stop stop-color="#1567AD"/><stop offset="1" stop-color="#F04159"/></linearGradient></defs></symbol><use xlink:href="#b" x="0"/></svg>