<svg width="24" height="24" version="1.1" xmlns="http://www.w3.org/2000/svg" xmlns:xlink="http://www.w3.org/1999/xlink"><symbol id="a"><path d="M23.371 12.225c0-.984-.08-1.701-.252-2.445H11.924v4.438h6.571c-.132 1.103-.848 2.764-2.437 3.88l-.023.148 3.54 2.75.245.025c2.253-2.086 3.551-5.156 3.551-8.796z" fill="#4285F4"/><path d="M11.924 23.918c3.22 0 5.922-1.063 7.896-2.897l-3.762-2.923c-1.007.704-2.359 1.196-4.134 1.196-3.153 0-5.83-2.087-6.783-4.97l-.14.012-3.681 2.857-.048.134c1.96 3.906 5.988 6.59 10.652 6.59z" fill="#34A853"/><path d="M5.14 14.324a7.382 7.382 0 01-.397-2.365c0-.824.146-1.621.384-2.365l-.006-.159-3.727-2.903-.122.059A11.998 11.998 0 000 11.959c0 1.927.464 3.747 1.272 5.368l3.869-3.003z" fill="#FBBC05"/><path d="M11.924 4.624c2.239 0 3.75.97 4.61 1.78L19.9 3.11C17.833 1.183 15.143 0 11.924 0 7.26 0 3.233 2.684 1.272 6.59l3.855 3.004c.968-2.884 3.644-4.97 6.797-4.97z" fill="#EB4335"/></symbol><use xlink:href="#a" x="0"/></svg>